{"title":"Vip.Brother.2012.E03.WebRip.-.B2A","uid":7650550,"size":769624128,"categoryP":"video","categoryS":"tv_shows","magnet":"?xt=urn:btih:0aee83d487513376a2d16acb28a3f2db8894b071&amp;dn=Vip.Brother.2012.E03.WebRip.-.B2A&amp;tr=udp%3A%2F%2Ftracker.openbittorrent.com%3A80&amp;tr=udp%3A%2F%2Fopen.demonii.com%3A1337&amp;tr=udp%3A%2F%2Ftracker.coppersurfer.tk%3A6969&amp;tr=udp%3A%2F%2Fexodus.desync.com%3A6969","seeders":0,"leechers":0,"uploader":"PoOoP12","files":2,"time":1348009236,"description":"Country: Bulgaria\nGenre: Reality, Comedy, Drama, Family\nYear: 2012\nRuntime: 48mn\nAudio: Bulgarian,Eng\n\nCast: PAMELA ANDERSON, Zlatka Dimitrova, Blagoi Ivanov, Orlin Pavlov, Funky\n\nPlot: Vip Brother is version of Big Brother. This is reality show. Special guest in the show is Pamela Anderson. She will be on the show this season.\n\n   \n\nQuote:\nVideo\nFormat : Sorenson Spark\nCodec ID : 2\nDuration : 48mn 6s\nBit rate : 2 000 Kbps\nWidth : 640 pixels\nHeight : 480 pixels\nDisplay aspect ratio : 4:3\nFrame rate mode : Constant\nFrame rate : 25.000 fps\nBit depth : 8 bits\nBits/(Pixel*Frame) : 0.260\nStream size : 688 MiB (94%)\n\nAudio\nFormat : MPEG Audio\nFormat version : Version 1\nFormat profile : Layer 3\nMode : Joint stereo\nMode extension : MS Stereo\nCodec ID : 2\nCodec ID/Hint : MP3\nDuration : 48mn 6s\nBit rate mode : Constant\nBit rate : 128 Kbps\nChannel(s) : 2 channels\nSampling rate : 44.1 KHz\nCompression mode : Lossy\nStream size : 45.7 MiB (6%)","torrent":{"xt":"urn:btih:0aee83d487513376a2d16acb28a3f2db8894b071","amp;dn":"Vip.Brother.2012.E03.WebRip.-.B2A","amp;tr":["udp%3A%2F%2Ftracker.openbittorrent.com%3A80","udp%3A%2F%2Fopen.demonii.com%3A1337","udp%3A%2F%2Ftracker.coppersurfer.tk%3A6969","udp%3A%2F%2Fexodus.desync.com%3A6969"],"infoHash":"0aee83d487513376a2d16acb28a3f2db8894b071","infoHashBuffer":{"type":"Buffer","data":[10,238,131,212,135,81,51,118,162,209,106,203,40,163,242,219,136,148,176,113]},"announce":[],"urlList":[]}}